ffmpeg started on 2026-03-29 at 16:37:31
Report written to "D:\Convert\FFMetrics\reports\psnr_report-6.txt"
Log level: 32
Command line:
ffmpeg -hide_banner -nostdin -r 24/1 -i "F:\\\xc0\xed\xe8\xec\xe5\\LightFamily\\\xce\xf1\xe2\xee\xe1\xee\xe4\xe8\xf2\xe5 \xfd\xf2\xf3 \xe2\xe5\xe4\xfc\xec\xf3\\LightFamilyDUB_\xce\xf1\xe2\xee\xe1\xee\xe4\xe8\xf2\xe5_\xfd\xf2\xf3_\xe2\xe5\xe4\xfc\xec\xf3_01_\xf1\xe5\xf0\xe8\xff_HEVC.mkv" -r 24/1 -i "F:\\\xc0\xed\xe8\xec\xe5\\LightFamily\\\xce\xf1\xe2\xee\xe1\xee\xe4\xe8\xf2\xe5 \xfd\xf2\xf3 \xe2\xe5\xe4\xfc\xec\xf3\\LightFamilyDUB_\xce\xf1\xe2\xee\xe1\xee\xe4\xe8\xf2\xe5_\xfd\xf2\xf3_\xe2\xe5\xe4\xfc\xec\xf3_01_\xf1\xe5\xf0\xe8\xff.mp4" -lavfi "[0:v]settb=AVTB,setpts=PTS-STARTPTS,format=pix_fmts=yuv420p10le,fps=24/1,scale=1920:1080:flags=lanczos:param0=3:out_range=limited:out_color_matrix=bt709:out_chroma_loc=left,setsar=1/1,setdar=(1920/1080)*(1/1),colorspace=format=yuv420p10:range=tv:primaries=bt709:trc=bt709:space=bt709:fast=0[main];[1:v]settb=AVTB,setpts=PTS-STARTPTS,format=pix_fmts=yuv420p,fps=24/1,scale=1920:1080:flags=lanczos:param0=3:out_range=limited:out_color_matrix=bt709:out_chroma_loc=left,setsar=1/1,setdar=(1920/1080)*(1/1),colorspace=format=yuv420p:range=tv:primaries=bt709:trc=bt709:space=bt709:fast=0[ref];[main][ref]psnr=eof_action=endall:stats_file='D\\:/Convert/FFMetrics/logs/psnr_logfile-6.txt'" -f null -
Input #0, matroska,webm, from 'F:\Аниме\LightFamily\Освободите эту ведьму\LightFamilyDUB_Освободите_эту_ведьму_01_серия_HEVC.mkv':
  Metadata:
    COMPATIBLE_BRANDS: mp42mp41
    MAJOR_BRAND     : mp42
    MINOR_VERSION   : 0
    ENCODER         : Lavf61.7.100
  Duration: 00:22:02.58, start: -0.021000, bitrate: 1409 kb/s
  Stream #0:0(eng): Video: hevc (Main 10), yuv420p10le(tv, bt709, progressive), 1920x1080 [SAR 1:1 DAR 16:9], 24 fps, 24 tbr, 1k tbn (default)
      Metadata:
        HANDLER_NAME    : Mainconcept Video Media Handler
        VENDOR_ID       : [0][0][0][0]
        ENCODER         : Lavc61.19.100 libx265
        BPS             : 1210472
        DURATION        : 00:22:02.541666666
        NUMBER_OF_FRAMES: 31741
        NUMBER_OF_BYTES : 200112491
        _STATISTICS_WRITING_APP: mkvpropedit v94.0 ('Initiate') 64-bit
        _STATISTICS_WRITING_DATE_UTC: 2026-03-28 15:53:15
        _STATISTICS_TAGS: BPS DURATION NUMBER_OF_FRAMES NUMBER_OF_BYTES
  Stream #0:1(eng): Audio: aac (LC), 48000 Hz, stereo, fltp (default)
      Metadata:
        HANDLER_NAME    : #Mainconcept MP4 Sound Media Handler
        VENDOR_ID       : [0][0][0][0]
        ENCODER         : Lavc61.19.100 aac
        BPS             : 194953
        DURATION        : 00:22:02.560000000
        NUMBER_OF_FRAMES: 61996
        NUMBER_OF_BYTES : 32229763
        _STATISTICS_WRITING_APP: mkvpropedit v94.0 ('Initiate') 64-bit
        _STATISTICS_WRITING_DATE_UTC: 2026-03-28 15:53:15
        _STATISTICS_TAGS: BPS DURATION NUMBER_OF_FRAMES NUMBER_OF_BYTES
Input #1, mov,mp4,m4a,3gp,3g2,mj2, from 'F:\Аниме\LightFamily\Освободите эту ведьму\LightFamilyDUB_Освободите_эту_ведьму_01_серия.mp4':
  Metadata:
    major_brand     : mp42
    minor_version   : 0
    compatible_brands: mp42mp41
    creation_time   : 2026-03-04T07:40:13.000000Z
  Duration: 00:22:02.54, start: 0.000000, bitrate: 8384 kb/s
  Stream #1:0[0x1](eng): Video: h264 (Main) (avc1 / 0x31637661), yuv420p(tv, bt709, progressive), 1920x1080, 7999 kb/s, 24 fps, 24 tbr, 24k tbn (default)
      Metadata:
        creation_time   : 2026-03-04T07:40:13.000000Z
        handler_name    : Mainconcept Video Media Handler
        vendor_id       : [0][0][0][0]
        encoder         : AVC Coding
  Stream #1:1[0x2](eng): Audio: aac (LC) (mp4a / 0x6134706D), 48000 Hz, stereo, fltp, 381 kb/s (default)
      Metadata:
        creation_time   : 2026-03-04T07:40:13.000000Z
        handler_name    : #Mainconcept MP4 Sound Media Handler
        vendor_id       : [0][0][0][0]
Stream mapping:
  Stream #0:0 (hevc) -> settb:default
  Stream #1:0 (h264) -> settb:default
  psnr:default -> Stream #0:0 (wrapped_avframe)
  Stream #0:1 -> #0:1 (aac (native) -> pcm_s16le (native))
Output #0, null, to 'pipe:':
  Metadata:
    COMPATIBLE_BRANDS: mp42mp41
    MAJOR_BRAND     : mp42
    MINOR_VERSION   : 0
    encoder         : Lavf61.7.100
  Stream #0:0: Video: wrapped_avframe, yuv420p10le(tv, bt709, progressive), 1920x1080 [SAR 1:1 DAR 16:9], q=2-31, 200 kb/s, 24 fps, 24 tbn
      Metadata:
        encoder         : Lavc61.19.100 wrapped_avframe
  Stream #0:1(eng): Audio: pcm_s16le, 48000 Hz, stereo, s16, 1536 kb/s (default)
      Metadata:
        HANDLER_NAME    : #Mainconcept MP4 Sound Media Handler
        VENDOR_ID       : [0][0][0][0]
        _STATISTICS_TAGS: BPS DURATION NUMBER_OF_FRAMES NUMBER_OF_BYTES
        BPS             : 194953
        DURATION        : 00:22:02.560000000
        NUMBER_OF_FRAMES: 61996
        NUMBER_OF_BYTES : 32229763
        _STATISTICS_WRITING_APP: mkvpropedit v94.0 ('Initiate') 64-bit
        _STATISTICS_WRITING_DATE_UTC: 2026-03-28 15:53:15
        encoder         : Lavc61.19.100 pcm_s16le
frame=   70 fps=0.0 q=-0.0 size=N/A time=00:00:02.91 bitrate=N/A speed=5.58x    frame=  190 fps=184 q=-0.0 size=N/A time=00:00:07.91 bitrate=N/A speed=7.67x    frame=  384 fps=246 q=-0.0 size=N/A time=00:00:16.00 bitrate=N/A speed=10.3x    frame=  563 fps=272 q=-0.0 size=N/A time=00:00:23.45 bitrate=N/A speed=11.3x    frame=  746 fps=289 q=-0.0 size=N/A time=00:00:31.08 bitrate=N/A speed=  12x    frame=  917 fps=296 q=-0.0 size=N/A time=00:00:38.20 bitrate=N/A speed=12.3x    frame= 1090 fps=301 q=-0.0 size=N/A time=00:00:45.41 bitrate=N/A speed=12.5x    frame= 1274 fps=308 q=-0.0 size=N/A time=00:00:53.08 bitrate=N/A speed=12.8x    frame= 1456 fps=314 q=-0.0 size=N/A time=00:01:00.66 bitrate=N/A speed=13.1x    frame= 1639 fps=318 q=-0.0 size=N/A time=00:01:08.29 bitrate=N/A speed=13.2x    frame= 1822 fps=320 q=-0.0 size=N/A time=00:01:15.91 bitrate=N/A speed=13.4x    frame= 1990 fps=321 q=-0.0 size=N/A time=00:01:22.91 bitrate=N/A speed=13.4x    frame= 2150 fps=320 q=-0.0 size=N/A time=00:01:29.58 bitrate=N/A speed=13.4x    frame= 2315 fps=321 q=-0.0 size=N/A time=00:01:36.45 bitrate=N/A speed=13.4x    frame= 2492 fps=322 q=-0.0 size=N/A time=00:01:43.83 bitrate=N/A speed=13.4x    frame= 2668 fps=323 q=-0.0 size=N/A time=00:01:51.16 bitrate=N/A speed=13.5x    frame= 2847 fps=325 q=-0.0 size=N/A time=00:01:58.62 bitrate=N/A speed=13.5x    frame= 3031 fps=326 q=-0.0 size=N/A time=00:02:06.29 bitrate=N/A speed=13.6x    frame= 3207 fps=327 q=-0.0 size=N/A time=00:02:13.62 bitrate=N/A speed=13.6x    frame= 3396 fps=329 q=-0.0 size=N/A time=00:02:21.50 bitrate=N/A speed=13.7x    frame= 3590 fps=332 q=-0.0 size=N/A time=00:02:29.58 bitrate=N/A speed=13.8x    frame= 3790 fps=334 q=-0.0 size=N/A time=00:02:37.91 bitrate=N/A speed=13.9x    frame= 3982 fps=336 q=-0.0 size=N/A time=00:02:45.91 bitrate=N/A speed=  14x    frame= 4173 fps=337 q=-0.0 size=N/A time=00:02:53.87 bitrate=N/A speed=  14x    frame= 4368 fps=339 q=-0.0 size=N/A time=00:03:02.00 bitrate=N/A speed=14.1x    frame= 4562 fps=340 q=-0.0 size=N/A time=00:03:10.08 bitrate=N/A speed=14.2x    frame= 4756 fps=342 q=-0.0 size=N/A time=00:03:18.16 bitrate=N/A speed=14.2x    frame= 4961 fps=343 q=-0.0 size=N/A time=00:03:26.70 bitrate=N/A speed=14.3x    frame= 5150 fps=344 q=-0.0 size=N/A time=00:03:34.58 bitrate=N/A speed=14.3x    frame= 5349 fps=346 q=-0.0 size=N/A time=00:03:42.87 bitrate=N/A speed=14.4x    frame= 5547 fps=347 q=-0.0 size=N/A time=00:03:51.12 bitrate=N/A speed=14.4x    frame= 5745 fps=348 q=-0.0 size=N/A time=00:03:59.37 bitrate=N/A speed=14.5x    frame= 5932 fps=348 q=-0.0 size=N/A time=00:04:07.16 bitrate=N/A speed=14.5x    frame= 6119 fps=349 q=-0.0 size=N/A time=00:04:14.95 bitrate=N/A speed=14.5x    frame= 6319 fps=350 q=-0.0 size=N/A time=00:04:23.29 bitrate=N/A speed=14.6x    frame= 6520 fps=351 q=-0.0 size=N/A time=00:04:31.66 bitrate=N/A speed=14.6x    frame= 6714 fps=352 q=-0.0 size=N/A time=00:04:39.75 bitrate=N/A speed=14.7x    frame= 6913 fps=353 q=-0.0 size=N/A time=00:04:48.04 bitrate=N/A speed=14.7x    frame= 7095 fps=353 q=-0.0 size=N/A time=00:04:55.62 bitrate=N/A speed=14.7x    frame= 7285 fps=353 q=-0.0 size=N/A time=00:05:03.54 bitrate=N/A speed=14.7x    frame= 7487 fps=354 q=-0.0 size=N/A time=00:05:11.95 bitrate=N/A speed=14.7x    frame= 7679 fps=354 q=-0.0 size=N/A time=00:05:19.95 bitrate=N/A speed=14.8x    frame= 7860 fps=354 q=-0.0 size=N/A time=00:05:27.50 bitrate=N/A speed=14.8x    frame= 8043 fps=354 q=-0.0 size=N/A time=00:05:35.12 bitrate=N/A speed=14.8x    frame= 8220 fps=354 q=-0.0 size=N/A time=00:05:42.50 bitrate=N/A speed=14.8x    frame= 8414 fps=355 q=-0.0 size=N/A time=00:05:50.58 bitrate=N/A speed=14.8x    frame= 8601 fps=355 q=-0.0 size=N/A time=00:05:58.37 bitrate=N/A speed=14.8x    frame= 8781 fps=355 q=-0.0 size=N/A time=00:06:05.87 bitrate=N/A speed=14.8x    frame= 8975 fps=355 q=-0.0 size=N/A time=00:06:13.95 bitrate=N/A speed=14.8x    frame= 9159 fps=355 q=-0.0 size=N/A time=00:06:21.62 bitrate=N/A speed=14.8x    frame= 9352 fps=356 q=-0.0 size=N/A time=00:06:29.66 bitrate=N/A speed=14.8x    frame= 9549 fps=356 q=-0.0 size=N/A time=00:06:37.87 bitrate=N/A speed=14.8x    frame= 9746 fps=356 q=-0.0 size=N/A time=00:06:46.08 bitrate=N/A speed=14.9x    frame= 9932 fps=357 q=-0.0 size=N/A time=00:06:53.83 bitrate=N/A speed=14.9x    frame=10126 fps=357 q=-0.0 size=N/A time=00:07:01.91 bitrate=N/A speed=14.9x    frame=10285 fps=356 q=-0.0 size=N/A time=00:07:08.54 bitrate=N/A speed=14.8x    frame=10454 fps=356 q=-0.0 size=N/A time=00:07:15.58 bitrate=N/A speed=14.8x    frame=10628 fps=355 q=-0.0 size=N/A time=00:07:22.83 bitrate=N/A speed=14.8x    frame=10790 fps=355 q=-0.0 size=N/A time=00:07:29.58 bitrate=N/A speed=14.8x    frame=10933 fps=353 q=-0.0 size=N/A time=00:07:35.54 bitrate=N/A speed=14.7x    frame=11100 fps=353 q=-0.0 size=N/A time=00:07:42.50 bitrate=N/A speed=14.7x    frame=11269 fps=352 q=-0.0 size=N/A time=00:07:49.54 bitrate=N/A speed=14.7x    frame=11452 fps=352 q=-0.0 size=N/A time=00:07:57.16 bitrate=N/A speed=14.7x    frame=11607 fps=351 q=-0.0 size=N/A time=00:08:03.62 bitrate=N/A speed=14.6x    frame=11776 fps=351 q=-0.0 size=N/A time=00:08:10.66 bitrate=N/A speed=14.6x    frame=11926 fps=350 q=-0.0 size=N/A time=00:08:16.91 bitrate=N/A speed=14.6x    frame=12087 fps=350 q=-0.0 size=N/A time=00:08:23.62 bitrate=N/A speed=14.6x    frame=12263 fps=349 q=-0.0 size=N/A time=00:08:30.95 bitrate=N/A speed=14.6x    frame=12442 fps=349 q=-0.0 size=N/A time=00:08:38.41 bitrate=N/A speed=14.6x    frame=12572 fps=348 q=-0.0 size=N/A time=00:08:43.83 bitrate=N/A speed=14.5x    frame=12735 fps=348 q=-0.0 size=N/A time=00:08:50.62 bitrate=N/A speed=14.5x    frame=12888 fps=347 q=-0.0 size=N/A time=00:08:57.00 bitrate=N/A speed=14.5x    frame=13065 fps=347 q=-0.0 size=N/A time=00:09:04.37 bitrate=N/A speed=14.5x    frame=13247 fps=347 q=-0.0 size=N/A time=00:09:11.95 bitrate=N/A speed=14.5x    frame=13422 fps=347 q=-0.0 size=N/A time=00:09:19.25 bitrate=N/A speed=14.5x    frame=13584 fps=346 q=-0.0 size=N/A time=00:09:26.00 bitrate=N/A speed=14.4x    frame=13763 fps=347 q=-0.0 size=N/A time=00:09:33.45 bitrate=N/A speed=14.4x    frame=13961 fps=347 q=-0.0 size=N/A time=00:09:41.70 bitrate=N/A speed=14.5x    frame=14146 fps=347 q=-0.0 size=N/A time=00:09:49.41 bitrate=N/A speed=14.5x    frame=14316 fps=347 q=-0.0 size=N/A time=00:09:56.50 bitrate=N/A speed=14.5x    frame=14497 fps=347 q=-0.0 size=N/A time=00:10:04.04 bitrate=N/A speed=14.5x    frame=14660 fps=347 q=-0.0 size=N/A time=00:10:10.83 bitrate=N/A speed=14.4x    frame=14841 fps=347 q=-0.0 size=N/A time=00:10:18.37 bitrate=N/A speed=14.4x    frame=15040 fps=347 q=-0.0 size=N/A time=00:10:26.66 bitrate=N/A speed=14.5x    frame=15237 fps=347 q=-0.0 size=N/A time=00:10:34.87 bitrate=N/A speed=14.5x    frame=15421 fps=348 q=-0.0 size=N/A time=00:10:42.54 bitrate=N/A speed=14.5x    frame=15618 fps=348 q=-0.0 size=N/A time=00:10:50.75 bitrate=N/A speed=14.5x    frame=15826 fps=349 q=-0.0 size=N/A time=00:10:59.41 bitrate=N/A speed=14.5x    frame=16011 fps=349 q=-0.0 size=N/A time=00:11:07.12 bitrate=N/A speed=14.5x    frame=16218 fps=349 q=-0.0 size=N/A time=00:11:15.75 bitrate=N/A speed=14.6x    frame=16411 fps=350 q=-0.0 size=N/A time=00:11:23.79 bitrate=N/A speed=14.6x    frame=16601 fps=350 q=-0.0 size=N/A time=00:11:31.70 bitrate=N/A speed=14.6x    frame=16806 fps=350 q=-0.0 size=N/A time=00:11:40.25 bitrate=N/A speed=14.6x    frame=17006 fps=351 q=-0.0 size=N/A time=00:11:48.58 bitrate=N/A speed=14.6x    frame=17195 fps=351 q=-0.0 size=N/A time=00:11:56.45 bitrate=N/A speed=14.6x    frame=17396 fps=351 q=-0.0 size=N/A time=00:12:04.83 bitrate=N/A speed=14.6x    frame=17591 fps=352 q=-0.0 size=N/A time=00:12:12.95 bitrate=N/A speed=14.6x    frame=17785 fps=352 q=-0.0 size=N/A time=00:12:21.04 bitrate=N/A speed=14.7x    frame=17982 fps=352 q=-0.0 size=N/A time=00:12:29.25 bitrate=N/A speed=14.7x    frame=18184 fps=352 q=-0.0 size=N/A time=00:12:37.66 bitrate=N/A speed=14.7x    frame=18383 fps=353 q=-0.0 size=N/A time=00:12:45.95 bitrate=N/A speed=14.7x    frame=18578 fps=353 q=-0.0 size=N/A time=00:12:54.08 bitrate=N/A speed=14.7x    frame=18773 fps=353 q=-0.0 size=N/A time=00:13:02.20 bitrate=N/A speed=14.7x    frame=18974 fps=354 q=-0.0 size=N/A time=00:13:10.58 bitrate=N/A speed=14.7x    frame=19168 fps=354 q=-0.0 size=N/A time=00:13:18.66 bitrate=N/A speed=14.7x    frame=19374 fps=354 q=-0.0 size=N/A time=00:13:27.25 bitrate=N/A speed=14.8x    frame=19575 fps=355 q=-0.0 size=N/A time=00:13:35.62 bitrate=N/A speed=14.8x    frame=19770 fps=355 q=-0.0 size=N/A time=00:13:43.75 bitrate=N/A speed=14.8x    frame=19957 fps=355 q=-0.0 size=N/A time=00:13:51.54 bitrate=N/A speed=14.8x    frame=20146 fps=355 q=-0.0 size=N/A time=00:13:59.41 bitrate=N/A speed=14.8x    frame=20349 fps=355 q=-0.0 size=N/A time=00:14:07.87 bitrate=N/A speed=14.8x    frame=20531 fps=355 q=-0.0 size=N/A time=00:14:15.45 bitrate=N/A speed=14.8x    frame=20709 fps=355 q=-0.0 size=N/A time=00:14:22.87 bitrate=N/A speed=14.8x    frame=20886 fps=355 q=-0.0 size=N/A time=00:14:30.25 bitrate=N/A speed=14.8x    frame=21072 fps=355 q=-0.0 size=N/A time=00:14:38.00 bitrate=N/A speed=14.8x    frame=21260 fps=355 q=-0.0 size=N/A time=00:14:45.83 bitrate=N/A speed=14.8x    frame=21429 fps=355 q=-0.0 size=N/A time=00:14:52.87 bitrate=N/A speed=14.8x    frame=21620 fps=355 q=-0.0 size=N/A time=00:15:00.83 bitrate=N/A speed=14.8x    frame=21808 fps=355 q=-0.0 size=N/A time=00:15:08.66 bitrate=N/A speed=14.8x    frame=21995 fps=355 q=-0.0 size=N/A time=00:15:16.45 bitrate=N/A speed=14.8x    frame=22196 fps=356 q=-0.0 size=N/A time=00:15:24.83 bitrate=N/A speed=14.8x    frame=22400 fps=356 q=-0.0 size=N/A time=00:15:33.33 bitrate=N/A speed=14.8x    frame=22574 fps=356 q=-0.0 size=N/A time=00:15:40.58 bitrate=N/A speed=14.8x    frame=22752 fps=356 q=-0.0 size=N/A time=00:15:48.00 bitrate=N/A speed=14.8x    frame=22923 fps=356 q=-0.0 size=N/A time=00:15:55.12 bitrate=N/A speed=14.8x    frame=23110 fps=356 q=-0.0 size=N/A time=00:16:02.91 bitrate=N/A speed=14.8x    frame=23292 fps=356 q=-0.0 size=N/A time=00:16:10.50 bitrate=N/A speed=14.8x    frame=23485 fps=356 q=-0.0 size=N/A time=00:16:18.54 bitrate=N/A speed=14.8x    frame=23678 fps=356 q=-0.0 size=N/A time=00:16:26.58 bitrate=N/A speed=14.8x    frame=23879 fps=356 q=-0.0 size=N/A time=00:16:34.95 bitrate=N/A speed=14.8x    frame=24082 fps=356 q=-0.0 size=N/A time=00:16:43.41 bitrate=N/A speed=14.8x    frame=24266 fps=356 q=-0.0 size=N/A time=00:16:51.08 bitrate=N/A speed=14.8x    frame=24461 fps=357 q=-0.0 size=N/A time=00:16:59.20 bitrate=N/A speed=14.9x    frame=24647 fps=357 q=-0.0 size=N/A time=00:17:06.95 bitrate=N/A speed=14.9x    frame=24851 fps=357 q=-0.0 size=N/A time=00:17:15.45 bitrate=N/A speed=14.9x    frame=25041 fps=357 q=-0.0 size=N/A time=00:17:23.37 bitrate=N/A speed=14.9x    frame=25238 fps=357 q=-0.0 size=N/A time=00:17:31.58 bitrate=N/A speed=14.9x    frame=25420 fps=357 q=-0.0 size=N/A time=00:17:39.16 bitrate=N/A speed=14.9x    frame=25617 fps=357 q=-0.0 size=N/A time=00:17:47.37 bitrate=N/A speed=14.9x    frame=25812 fps=357 q=-0.0 size=N/A time=00:17:55.50 bitrate=N/A speed=14.9x    frame=26011 fps=358 q=-0.0 size=N/A time=00:18:03.79 bitrate=N/A speed=14.9x    frame=26209 fps=358 q=-0.0 size=N/A time=00:18:12.04 bitrate=N/A speed=14.9x    frame=26403 fps=358 q=-0.0 size=N/A time=00:18:20.12 bitrate=N/A speed=14.9x    frame=26577 fps=358 q=-0.0 size=N/A time=00:18:27.37 bitrate=N/A speed=14.9x    frame=26758 fps=358 q=-0.0 size=N/A time=00:18:34.91 bitrate=N/A speed=14.9x    frame=26940 fps=358 q=-0.0 size=N/A time=00:18:42.50 bitrate=N/A speed=14.9x    frame=27118 fps=358 q=-0.0 size=N/A time=00:18:49.91 bitrate=N/A speed=14.9x    frame=27302 fps=358 q=-0.0 size=N/A time=00:18:57.58 bitrate=N/A speed=14.9x    frame=27464 fps=357 q=-0.0 size=N/A time=00:19:04.33 bitrate=N/A speed=14.9x    frame=27600 fps=357 q=-0.0 size=N/A time=00:19:10.00 bitrate=N/A speed=14.9x    frame=27768 fps=357 q=-0.0 size=N/A time=00:19:17.00 bitrate=N/A speed=14.9x    frame=27939 fps=356 q=-0.0 size=N/A time=00:19:24.12 bitrate=N/A speed=14.8x    frame=28116 fps=356 q=-0.0 size=N/A time=00:19:31.50 bitrate=N/A speed=14.8x    frame=28302 fps=356 q=-0.0 size=N/A time=00:19:39.25 bitrate=N/A speed=14.8x    frame=28499 fps=356 q=-0.0 size=N/A time=00:19:47.45 bitrate=N/A speed=14.9x    frame=28695 fps=357 q=-0.0 size=N/A time=00:19:55.62 bitrate=N/A speed=14.9x    frame=28904 fps=357 q=-0.0 size=N/A time=00:20:04.33 bitrate=N/A speed=14.9x    frame=29100 fps=357 q=-0.0 size=N/A time=00:20:12.50 bitrate=N/A speed=14.9x    frame=29263 fps=357 q=-0.0 size=N/A time=00:20:19.29 bitrate=N/A speed=14.9x    frame=29417 fps=356 q=-0.0 size=N/A time=00:20:25.70 bitrate=N/A speed=14.8x    frame=29517 fps=355 q=-0.0 size=N/A time=00:20:29.87 bitrate=N/A speed=14.8x    frame=29607 fps=354 q=-0.0 size=N/A time=00:20:33.62 bitrate=N/A speed=14.8x    frame=29711 fps=353 q=-0.0 size=N/A time=00:20:37.95 bitrate=N/A speed=14.7x    frame=29852 fps=353 q=-0.0 size=N/A time=00:20:43.83 bitrate=N/A speed=14.7x    frame=29997 fps=352 q=-0.0 size=N/A time=00:20:49.87 bitrate=N/A speed=14.7x    frame=30144 fps=352 q=-0.0 size=N/A time=00:20:56.00 bitrate=N/A speed=14.7x    frame=30303 fps=352 q=-0.0 size=N/A time=00:21:02.62 bitrate=N/A speed=14.7x    frame=30464 fps=352 q=-0.0 size=N/A time=00:21:09.33 bitrate=N/A speed=14.6x    frame=30624 fps=351 q=-0.0 size=N/A time=00:21:16.00 bitrate=N/A speed=14.6x    frame=30756 fps=351 q=-0.0 size=N/A time=00:21:21.50 bitrate=N/A speed=14.6x    frame=30893 fps=350 q=-0.0 size=N/A time=00:21:27.20 bitrate=N/A speed=14.6x    frame=31057 fps=350 q=-0.0 size=N/A time=00:21:34.04 bitrate=N/A speed=14.6x    frame=31211 fps=350 q=-0.0 size=N/A time=00:21:40.45 bitrate=N/A speed=14.6x    frame=31358 fps=349 q=-0.0 size=N/A time=00:21:46.58 bitrate=N/A speed=14.6x    frame=31519 fps=349 q=-0.0 size=N/A time=00:21:53.29 bitrate=N/A speed=14.5x    frame=31673 fps=349 q=-0.0 size=N/A time=00:21:59.70 bitrate=N/A speed=14.5x    [Parsed_psnr_16 @ 000001bd0ae1b980] PSNR y:47.686596 u:51.465016 v:51.251073 average:48.602598 min:28.191496 max:72.638441
[out#0/null @ 000001bd74721a80] video:13639KiB audio:247984KiB subtitle:0KiB other streams:0KiB global headers:0KiB muxing overhead: unknown
frame=31741 fps=349 q=-0.0 Lsize=N/A time=00:22:02.54 bitrate=N/A speed=14.5x    
